<?xml version="1.0" encoding="UTF-8"?>
<svg id="Layer_1" data-name="Layer 1" xmlns="http://www.w3.org/2000/svg" viewBox="0 0 804.74 136.66">
  <defs>
    <style>
      .cls-1 {
        fill: #fff;
      }
    </style>
  </defs>
  <g>
    <path class="cls-1" d="M332.25,20.89c.51,1.01,1.21,1.95,1.86,2.87,17.64,24.79,34.94,49.83,52.54,74.64.74,1.04,1.6,2.46,2.4,3.39.13.15.14.29.4.23V20.89h9.89v95.81h-12.36l-56.87-81.6-.4-.23v81.84h-9.74V20.89h12.29Z"/>
    <path class="cls-1" d="M413.03,116.7V20.89h33.26c28.57,1.38,50.15,20.86,48.93,50.45-1.08,26.2-21.64,43.55-46.96,45.36h-35.24ZM422.77,107.81c6.18-.12,12.39.16,18.58,0,10.12-.25,19.22-1.94,27.65-7.79,13.06-9.06,18.05-25.3,14.57-40.61-4.2-18.5-20.75-28.99-39.12-29.49h-21.68v77.89Z"/>
    <path class="cls-1" d="M527.42,116.7V20.89h33.26c28.57,1.38,50.15,20.86,48.93,50.45-1.08,26.2-21.63,43.54-46.96,45.36h-35.24ZM537.17,107.81c6.18-.12,12.39.16,18.58,0,10.12-.25,19.22-1.94,27.65-7.79,13.06-9.06,18.05-25.3,14.57-40.61-4.2-18.5-20.75-28.99-39.12-29.49h-21.68v77.89Z"/>
    <path class="cls-1" d="M202.42,40.49c-5.57-8.07-16.13-12.39-25.83-11.96-40.82,1.81-48.48,61.34-12.95,76.75,14.09,6.11,33.11,3.26,41.48-10.57l.34-.21,7.5,5.31c.14.26-.47,1-.65,1.27-12.09,17.74-39.65,19.58-57.39,9.91-32.43-17.68-32.39-67.81.14-85.34,17.55-9.46,43.14-7.92,55.77,8.78-2.48,1.73-4.91,4.03-7.44,5.63-.23.14-.72.56-.98.42Z"/>
    <polygon class="cls-1" points="218.14 116.55 259.58 21.02 268.97 21.04 309.79 116.55 298.92 116.55 263.96 32.32 228.8 116.55 218.14 116.55"/>
    <rect class="cls-1" x="503.84" y="20.89" width="9.74" height="95.81"/>
    <circle class="cls-1" cx="264.08" cy="86.94" r="9.93"/>
  </g>
  <g>
    <path class="cls-1" d="M670.19.6l-22.56,136.06h-28.03L642.15.6h28.03Z"/>
    <path class="cls-1" d="M731.6,136.66c-10.57,0-19.88-2.17-27.93-6.5-8.05-4.33-14.31-10.6-18.8-18.8-4.49-8.2-6.73-18-6.73-29.4,0-10.81,1.72-21.13,5.17-30.96,3.44-9.83,8.39-18.58,14.83-26.24,6.44-7.66,14.16-13.7,23.16-18.13,9-4.42,19.02-6.64,30.07-6.64s19.87,2.17,27.88,6.5c8.02,4.34,14.27,10.59,18.75,18.75,4.48,8.17,6.73,18.01,6.73,29.53,0,10.87-1.74,21.22-5.21,31.05-3.47,9.83-8.43,18.56-14.88,26.19-6.45,7.63-14.15,13.65-23.12,18.04-8.97,4.4-18.95,6.59-29.93,6.59ZM732.76,112.52c7.25,0,13.66-1.69,19.24-5.08,5.58-3.39,10.26-7.88,14.03-13.5,3.77-5.61,6.62-11.82,8.55-18.62,1.93-6.8,2.9-13.64,2.9-20.54s-1.11-12.25-3.34-16.79c-2.23-4.54-5.38-7.99-9.44-10.33-4.07-2.35-8.89-3.52-14.48-3.52-7.19,0-13.57,1.69-19.15,5.08-5.58,3.39-10.28,7.88-14.08,13.5-3.8,5.61-6.67,11.82-8.6,18.62-1.93,6.8-2.9,13.65-2.9,20.53s1.11,12.18,3.34,16.75c2.23,4.57,5.37,8.03,9.44,10.38,4.07,2.35,8.89,3.52,14.48,3.52Z"/>
    <polyline class="cls-1" points="756.8 90.2 759.43 94.46 768.47 107.61 786.64 136.38 762.99 136.38 750.75 117.02 744.27 106.24 734.83 90.37"/>
  </g>
  <path class="cls-1" d="M120.71,6.01v124.25s-.21.24-.28.27c-.31.14-4.02.13-4.62.08-.3-.03-.89-.08-.89-.49V6.01h5.79Z"/>
  <g>
    <path class="cls-1" d="M50.54,52.32c11.67-1.03,20.6,9.37,17.29,20.72-3.85,13.22-21.83,15.54-29.17,3.88-6.21-9.87.21-23.56,11.88-24.59ZM51.78,58.65c-7.17.44-11.42,8.36-7.8,14.59,4.01,6.91,14.35,6.2,17.36-1.19,2.7-6.62-2.42-13.84-9.56-13.41Z"/>
    <path class="cls-1" d="M71.9,21.2c10.01-.5,16.39,10.43,11.3,19-4.54,7.64-15.74,8.06-20.89.83-5.77-8.1-.3-19.34,9.59-19.83Z"/>
    <path class="cls-1" d="M91.19,55.9c10.01-.94,17.12,9.7,12.21,18.53-4.36,7.85-15.62,8.7-20.98,1.43-5.78-7.83-.91-19.06,8.77-19.97Z"/>
    <path class="cls-1" d="M32.21,21.2c7.87-.39,14.17,6.69,12.94,14.45-1.67,10.57-15.13,14.32-22.01,6.09s-1.22-20.03,9.06-20.54Z"/>
    <path class="cls-1" d="M72.32,90.44c9.79-.15,15.9,10.61,10.88,19.01-4.58,7.66-15.72,8.09-20.89.83-5.86-8.23-.06-19.69,10.01-19.84Z"/>
    <path class="cls-1" d="M32.75,90.46c10.69,0,16.52,12.65,9.49,20.74-5.75,6.61-16.57,5.35-20.58-2.43-4.28-8.31,1.75-18.31,11.1-18.31Z"/>
    <path class="cls-1" d="M11.27,55.9c10.23-.96,17.2,10,11.99,18.86-4.61,7.84-16.18,8.17-21.17.55-5.17-7.9-.23-18.53,9.18-19.41Z"/>
  </g>
</svg>