<?xml version="1.0" encoding="UTF-8"?>
<svg id="Layer_1" data-name="Layer 1" xmlns="http://www.w3.org/2000/svg" viewBox="0 0 105 94.29">
  <defs>
    <style>
      .cls-1 {
        fill: #fff;
      }
    </style>
  </defs>
  <path class="cls-1" d="M50.54,31.13c11.67-1.03,20.6,9.37,17.29,20.72-3.85,13.22-21.83,15.54-29.17,3.88-6.21-9.87.21-23.56,11.88-24.59ZM51.78,37.47c-7.17.44-11.42,8.36-7.8,14.59,4.01,6.91,14.35,6.2,17.36-1.19,2.7-6.62-2.42-13.84-9.56-13.41Z"/>
  <path class="cls-1" d="M71.9.02c10.01-.5,16.39,10.43,11.3,19-4.54,7.64-15.74,8.06-20.89.83C56.54,11.75,62.01.51,71.9.02Z"/>
  <path class="cls-1" d="M91.19,34.71c10.01-.94,17.12,9.7,12.21,18.53-4.36,7.85-15.62,8.7-20.98,1.43-5.78-7.83-.91-19.06,8.77-19.97Z"/>
  <path class="cls-1" d="M32.21.02c7.87-.39,14.17,6.69,12.94,14.45-1.67,10.57-15.13,14.32-22.01,6.09S21.94.53,32.21.02Z"/>
  <path class="cls-1" d="M72.32,69.26c9.79-.15,15.9,10.61,10.88,19.01-4.58,7.66-15.72,8.09-20.89.83-5.86-8.23-.06-19.69,10.01-19.84Z"/>
  <path class="cls-1" d="M32.75,69.28c10.69,0,16.52,12.65,9.49,20.74-5.75,6.61-16.57,5.35-20.58-2.43-4.28-8.31,1.75-18.31,11.1-18.31Z"/>
  <path class="cls-1" d="M11.27,34.71c10.23-.96,17.2,10,11.99,18.86-4.61,7.84-16.18,8.17-21.17.55-5.17-7.9-.23-18.53,9.18-19.41Z"/>
</svg>