<?xml version="1.0" encoding="UTF-8"?>
<svg xmlns="http://www.w3.org/2000/svg" viewBox="0 0 674.1 136.66">
  <g fill="#fff">
    <path d="M201.61,20.89c.51,1.01,1.21,1.95,1.86,2.87,17.64,24.79,34.94,49.83,52.54,74.64.74,1.04,1.6,2.46,2.4,3.39.13.15.14.29.4.23V20.89h9.89v95.81h-12.36l-56.87-81.6-.4-.23v81.84h-9.74V20.89h12.29Z"/>
    <path d="M282.39,116.7V20.89h33.26c28.57,1.38,50.15,20.86,48.93,50.45-1.08,26.2-21.64,43.55-46.96,45.36h-35.24ZM292.13,107.81c6.18-.12,12.39.16,18.58,0,10.12-.25,19.22-1.94,27.65-7.79,13.06-9.06,18.05-25.3,14.57-40.61-4.2-18.5-20.75-28.99-39.12-29.49h-21.68v77.89Z"/>
    <path d="M396.78,116.7V20.89h33.26c28.57,1.38,50.15,20.86,48.93,50.45-1.08,26.2-21.63,43.54-46.96,45.36h-35.24ZM406.53,107.81c6.18-.12,12.39.16,18.58,0,10.12-.25,19.22-1.94,27.65-7.79,13.06-9.06,18.05-25.3,14.57-40.61-4.2-18.5-20.75-28.99-39.12-29.49h-21.68v77.89Z"/>
    <path d="M71.78,40.49c-5.57-8.07-16.13-12.39-25.83-11.96-40.82,1.81-48.48,61.34-12.95,76.75,14.09,6.11,33.11,3.26,41.48-10.57l.34-.21,7.5,5.31c.14.26-.47,1-.65,1.27-12.09,17.74-39.65,19.58-57.39,9.91-32.43-17.68-32.39-67.81.14-85.34,17.55-9.46,43.14-7.92,55.77,8.78-2.48,1.73-4.91,4.03-7.44,5.63-.23.14-.72.56-.98.42Z"/>
    <polygon points="87.5 116.55 128.94 21.02 138.33 21.04 179.15 116.55 168.28 116.55 133.32 32.32 98.16 116.55 87.5 116.55"/>
    <rect x="373.2" y="20.89" width="9.74" height="95.81"/>
  </g>
</svg>
