<?xml version="1.0" encoding="UTF-8"?>
<svg xmlns="http://www.w3.org/2000/svg" viewBox="0 0 674.1 136.66">
  <circle fill="#fff" cx="133.44" cy="86.94" r="9.93"/>
  <g fill="#fff">
    <path d="M539.55.6l-22.56,136.06h-28.03L511.51.6h28.03Z"/>
    <path d="M600.96,136.66c-10.57,0-19.88-2.17-27.93-6.5-8.05-4.33-14.31-10.6-18.8-18.8-4.49-8.2-6.73-18-6.73-29.4,0-10.81,1.72-21.13,5.17-30.96,3.44-9.83,8.39-18.58,14.83-26.24,6.44-7.66,14.16-13.7,23.16-18.13,9-4.42,19.02-6.64,30.07-6.64s19.87,2.17,27.88,6.5c8.02,4.34,14.27,10.59,18.75,18.75,4.48,8.17,6.73,18.01,6.73,29.53,0,10.87-1.74,21.22-5.21,31.05-3.47,9.83-8.43,18.56-14.88,26.19-6.45,7.63-14.15,13.65-23.12,18.04-8.97,4.4-18.95,6.59-29.93,6.59ZM602.12,112.52c7.25,0,13.66-1.69,19.24-5.08,5.58-3.39,10.26-7.88,14.03-13.5,3.77-5.61,6.62-11.82,8.55-18.62,1.93-6.8,2.9-13.64,2.9-20.54s-1.11-12.25-3.34-16.79c-2.23-4.54-5.38-7.99-9.44-10.33-4.07-2.35-8.89-3.52-14.48-3.52-7.19,0-13.57,1.69-19.15,5.08-5.58,3.39-10.28,7.88-14.08,13.5-3.8,5.61-6.67,11.82-8.6,18.62-1.93,6.8-2.9,13.65-2.9,20.53s1.11,12.18,3.34,16.75c2.23,4.57,5.37,8.03,9.44,10.38,4.07,2.35,8.89,3.52,14.48,3.52Z"/>
    <polyline points="626.16 90.2 628.79 94.46 637.83 107.61 656 136.38 632.35 136.38 620.11 117.02 613.63 106.24 604.19 90.37"/>
  </g>
</svg>
