<svg xmlns="http://www.w3.org/2000/svg" width="48" height="48" viewBox="0 0 256 256" fill="none" id="my-svg">
  <defs><pattern id="a" patternUnits="userSpaceOnUse" width="73.612" height="85" patternTransform="scale(2.5)"><rect id="p1" x="0" y="0" width="100%" height="100%" fill="#8f66ff"/><path id="p2f" d="M36.8-18.62L47.57 0 58.4-18.6zM47.57 0L36.7 18.62h21.6zM0 2.63l10.75 18.62L21.59 2.64zm10.75 18.62L-.1 39.87h21.6zM73.61 2.63l10.75 18.62L95.21 2.64zm10.75 18.62L73.52 39.87h21.6zm-47.55 2.63L47.56 42.5 58.4 23.9zM47.56 42.5L36.7 61.12h21.6zM0 45.13l10.75 18.62 10.84-18.61zm10.75 18.62L-.1 82.37h21.6zm62.86-18.62l10.75 18.62 10.85-18.61zm10.75 18.62L73.52 82.37h21.6zm-47.55 2.63L47.56 85 58.4 66.4zM47.56 85L36.7 103.62h21.6z" stroke-width="1" stroke="none" fill="#c8a1fd"/><path id="p3f" d="M58.4-18.61L47.56 0h21.59L58.4-18.6zM47.56 0h-21.6l10.75 18.62L47.56 0zM21.59 2.64L10.75 21.25h21.6L21.58 2.65zM10.75 21.25h-21.6L-.1 39.87l10.85-18.62zm52.02 0l10.75 18.62 10.84-18.62h-21.6zm-4.37 2.64L47.56 42.5h21.59L58.4 23.9zM47.56 42.5h-21.6l10.75 18.62L47.56 42.5zm-25.97 2.64L10.75 63.75h21.6L21.58 45.15zM10.75 63.75h-21.6L-.1 82.37l10.85-18.62zm52.02 0l10.75 18.62 10.84-18.62h-21.6zm-4.37 2.64L47.56 85h21.59L58.4 66.4zM47.56 85h-21.6l10.75 18.62L47.56 85z" stroke-width="1" stroke="none" fill="#6941c6"/><path id="p4f" d="M58.3 103.62l10.85-18.61h-21.6zM25.97 85h21.6L36.8 66.38zm32.35-66.38L69.15.01h-21.6zM25.96 0h21.6L36.8-18.62zm36.8 63.75h21.6L73.61 45.13zM21.5 39.87l10.84-18.61H10.75zm-32.34-18.62h21.59L0 2.63zm95.2 0L73.61 2.63 62.77 21.25zm-73.61 42.5L21.5 82.37l10.84-18.61zM0 45.13l-10.85 18.62h21.6zm10.33 20.45l-.37-.56-.15.26zM46.1 86.23l.52.3.15-.26zm23.05-43.72h-21.6l10.76 18.61zm-21.6 0L36.82 23.87 25.96 42.5z" stroke-width="1" stroke="none" fill="#844fee"/></pattern>
    <linearGradient id="gradient1">
      <stop class="stop1" offset="0%" stop-color="#4542ff"/>
      <stop class="stop2" offset="100%" stop-color="#3d12ff"/>
    </linearGradient>
  </defs>
  
  <g id="group" transform="translate(0,0) scale(1)">
    <path d="M192.000 170.667C192.000 182.449 182.449 192.000 170.667 192.000C158.884 192.000 149.333 182.449 149.333 170.667C149.333 158.884 158.884 149.333 170.667 149.333C182.449 149.333 192.000 158.884 192.000 170.667Z" stroke="#8c4a65" stroke-width="14" stroke-linejoin="round" id="secondary"/>
    <path d="M106.667 170.667C106.667 182.449 97.115 192.000 85.333 192.000C73.551 192.000 64.000 182.449 64.000 170.667C64.000 158.884 73.551 149.333 85.333 149.333C97.115 149.333 106.667 158.884 106.667 170.667Z" stroke="#8c4a65" stroke-width="14" stroke-linejoin="round" id="secondary"/>
    <path d="M128.000 74.667C139.782 74.667 149.333 65.115 149.333 53.333C149.333 41.551 139.782 32.000 128.000 32.000C116.218 32.000 106.667 41.551 106.667 53.333C106.667 65.115 116.218 74.667 128.000 74.667ZM128.000 74.667V117.333M53.333 224.000H202.667C214.449 224.000 224.000 214.449 224.000 202.667V138.667C224.000 126.884 214.449 117.333 202.667 117.333H53.333C41.551 117.333 32.000 126.884 32.000 138.667V202.667C32.000 214.449 41.551 224.000 53.333 224.000Z" stroke="#7a5a96" stroke-width="14" stroke-linejoin="round" id="primary"/>
  </g>
</svg>