<svg xmlns="http://www.w3.org/2000/svg" width="48" height="48" viewBox="0 0 256 256" fill="none" id="my-svg">
  <defs><pattern id="a" patternUnits="userSpaceOnUse" width="73.612" height="85" patternTransform="scale(2.5)"><rect id="p1" x="0" y="0" width="100%" height="100%" fill="#8f66ff"></rect><path id="p2f" d="M36.8-18.62L47.57 0 58.4-18.6zM47.57 0L36.7 18.62h21.6zM0 2.63l10.75 18.62L21.59 2.64zm10.75 18.62L-.1 39.87h21.6zM73.61 2.63l10.75 18.62L95.21 2.64zm10.75 18.62L73.52 39.87h21.6zm-47.55 2.63L47.56 42.5 58.4 23.9zM47.56 42.5L36.7 61.12h21.6zM0 45.13l10.75 18.62 10.84-18.61zm10.75 18.62L-.1 82.37h21.6zm62.86-18.62l10.75 18.62 10.85-18.61zm10.75 18.62L73.52 82.37h21.6zm-47.55 2.63L47.56 85 58.4 66.4zM47.56 85L36.7 103.62h21.6z" stroke-width="1" stroke="none" fill="#c8a1fd"></path><path id="p3f" d="M58.4-18.61L47.56 0h21.59L58.4-18.6zM47.56 0h-21.6l10.75 18.62L47.56 0zM21.59 2.64L10.75 21.25h21.6L21.58 2.65zM10.75 21.25h-21.6L-.1 39.87l10.85-18.62zm52.02 0l10.75 18.62 10.84-18.62h-21.6zm-4.37 2.64L47.56 42.5h21.59L58.4 23.9zM47.56 42.5h-21.6l10.75 18.62L47.56 42.5zm-25.97 2.64L10.75 63.75h21.6L21.58 45.15zM10.75 63.75h-21.6L-.1 82.37l10.85-18.62zm52.02 0l10.75 18.62 10.84-18.62h-21.6zm-4.37 2.64L47.56 85h21.59L58.4 66.4zM47.56 85h-21.6l10.75 18.62L47.56 85z" stroke-width="1" stroke="none" fill="#6941c6"></path><path id="p4f" d="M58.3 103.62l10.85-18.61h-21.6zM25.97 85h21.6L36.8 66.38zm32.35-66.38L69.15.01h-21.6zM25.96 0h21.6L36.8-18.62zm36.8 63.75h21.6L73.61 45.13zM21.5 39.87l10.84-18.61H10.75zm-32.34-18.62h21.59L0 2.63zm95.2 0L73.61 2.63 62.77 21.25zm-73.61 42.5L21.5 82.37l10.84-18.61zM0 45.13l-10.85 18.62h21.6zm10.33 20.45l-.37-.56-.15.26zM46.1 86.23l.52.3.15-.26zm23.05-43.72h-21.6l10.76 18.61zm-21.6 0L36.82 23.87 25.96 42.5z" stroke-width="1" stroke="none" fill="#844fee"></path></pattern>
    <linearGradient id="gradient1">
      <stop class="stop1" offset="0%" stop-color="#4542ff"></stop>
      <stop class="stop2" offset="100%" stop-color="#3d12ff"></stop>
    </linearGradient>
  </defs>
  <rect id="backgr" width="256" height="256" fill="none" rx="60"></rect>
  <g id="group" transform="translate(0,0) scale(1)">
    <path d="M142.281 154.667H157.091C174.764 154.667 192.000 165.196 192.000 183.216V207.686C192.000 216.697 184.836 224.000 176.000 224.000H80.000C71.163 224.000 64.000 216.697 64.000 207.686V183.216C64.000 165.196 81.236 154.667 98.909 154.667H113.719M182.566 90.667H194.909C209.636 90.667 224.000 99.576 224.000 114.823V156.863C224.000 164.486 218.030 170.667 210.667 170.667H192.000M158.766 90.667H146.425C145.995 90.667 145.566 90.674 145.137 90.689M73.433 90.667H61.091C46.363 90.667 32.000 99.576 32.000 114.823V156.863C32.000 164.486 37.969 170.667 45.333 170.667H64.000M97.234 90.667H109.575C110.005 90.667 110.434 90.674 110.863 90.689" stroke="#7a5a96" stroke-width="14" stroke-linecap="round" stroke-linejoin="round" id="primary"></path>
    <path d="M112.000 64.694C112.000 82.750 97.185 94.118 85.333 94.118C73.481 94.118 58.667 82.750 58.667 64.694C58.667 46.637 68.969 32.000 85.333 32.000C101.697 32.000 112.000 46.637 112.000 64.694Z M197.333 64.694C197.333 82.750 182.518 94.118 170.667 94.118C158.815 94.118 144.000 82.750 144.000 64.694C144.000 46.637 154.302 32.000 170.667 32.000C187.030 32.000 197.333 46.637 197.333 64.694Z M145.137 90.689C140.374 87.286 134.598 85.333 128.000 85.333C121.402 85.333 115.626 87.286 110.863 90.689M145.137 90.689C154.549 97.414 160.000 109.802 160.000 123.971C160.000 145.310 142.222 158.746 128.000 158.746C113.778 158.746 96.000 145.310 96.000 123.971C96.000 109.802 101.451 97.414 110.863 90.689" stroke="#8c4a65" stroke-width="14" stroke-linecap="round" stroke-linejoin="round" id="secondary"></path>
  </g>
</svg>