<svg xmlns="http://www.w3.org/2000/svg" width="48" height="48" viewBox="0 0 256 256" fill="none" id="my-svg">
  <defs><pattern id="a" patternUnits="userSpaceOnUse" width="73.612" height="85" patternTransform="scale(2.5)"><rect id="p1" x="0" y="0" width="100%" height="100%" fill="#8f66ff"></rect><path id="p2f" d="M36.8-18.62L47.57 0 58.4-18.6zM47.57 0L36.7 18.62h21.6zM0 2.63l10.75 18.62L21.59 2.64zm10.75 18.62L-.1 39.87h21.6zM73.61 2.63l10.75 18.62L95.21 2.64zm10.75 18.62L73.52 39.87h21.6zm-47.55 2.63L47.56 42.5 58.4 23.9zM47.56 42.5L36.7 61.12h21.6zM0 45.13l10.75 18.62 10.84-18.61zm10.75 18.62L-.1 82.37h21.6zm62.86-18.62l10.75 18.62 10.85-18.61zm10.75 18.62L73.52 82.37h21.6zm-47.55 2.63L47.56 85 58.4 66.4zM47.56 85L36.7 103.62h21.6z" stroke-width="1" stroke="none" fill="#c8a1fd"></path><path id="p3f" d="M58.4-18.61L47.56 0h21.59L58.4-18.6zM47.56 0h-21.6l10.75 18.62L47.56 0zM21.59 2.64L10.75 21.25h21.6L21.58 2.65zM10.75 21.25h-21.6L-.1 39.87l10.85-18.62zm52.02 0l10.75 18.62 10.84-18.62h-21.6zm-4.37 2.64L47.56 42.5h21.59L58.4 23.9zM47.56 42.5h-21.6l10.75 18.62L47.56 42.5zm-25.97 2.64L10.75 63.75h21.6L21.58 45.15zM10.75 63.75h-21.6L-.1 82.37l10.85-18.62zm52.02 0l10.75 18.62 10.84-18.62h-21.6zm-4.37 2.64L47.56 85h21.59L58.4 66.4zM47.56 85h-21.6l10.75 18.62L47.56 85z" stroke-width="1" stroke="none" fill="#6941c6"></path><path id="p4f" d="M58.3 103.62l10.85-18.61h-21.6zM25.97 85h21.6L36.8 66.38zm32.35-66.38L69.15.01h-21.6zM25.96 0h21.6L36.8-18.62zm36.8 63.75h21.6L73.61 45.13zM21.5 39.87l10.84-18.61H10.75zm-32.34-18.62h21.59L0 2.63zm95.2 0L73.61 2.63 62.77 21.25zm-73.61 42.5L21.5 82.37l10.84-18.61zM0 45.13l-10.85 18.62h21.6zm10.33 20.45l-.37-.56-.15.26zM46.1 86.23l.52.3.15-.26zm23.05-43.72h-21.6l10.76 18.61zm-21.6 0L36.82 23.87 25.96 42.5z" stroke-width="1" stroke="none" fill="#844fee"></path></pattern>
    <linearGradient id="gradient1">
      <stop class="stop1" offset="0%" stop-color="#4542ff"></stop>
      <stop class="stop2" offset="100%" stop-color="#3d12ff"></stop>
    </linearGradient>
  </defs>
  <rect id="backgr" width="256" height="256" fill="none" rx="60"></rect>
  <g id="group" transform="translate(0,0) scale(1)">
    <path d="M140.666 107.294H154.667C169.243 107.294 181.868 115.717 188.015 128.000M94.001 107.294H80.000C59.381 107.294 42.667 124.149 42.667 144.941V173.177C42.667 183.572 51.024 192.000 61.333 192.000H128.000M154.667 76.582C154.667 101.204 133.926 116.706 117.333 116.706C100.741 116.706 80.000 101.204 80.000 76.582C80.000 51.960 94.424 32.000 117.333 32.000C140.243 32.000 154.667 51.960 154.667 76.582Z" stroke="#7a5a96" stroke-width="14" stroke-linecap="round" stroke-linejoin="round" id="primary"></path>
    <path d="M213.333 192.000V181.333C213.333 169.551 203.782 160.000 192.000 160.000C180.218 160.000 170.667 169.551 170.667 181.333V192.000M160.000 192.000H224.000V224.000H160.000V192.000Z" stroke="#8c4a65" stroke-width="14" stroke-linecap="round" stroke-linejoin="round" id="secondary"></path>
  </g>
</svg>