<svg xmlns="http://www.w3.org/2000/svg" width="48" height="48" viewBox="0 0 256 256" fill="none">
  <g transform="translate(0,0) scale(1)">
    <path d="M181.333 32.000V224.000M53.333 224.000H202.667C214.449 224.000 224.000 214.449 224.000 202.667V53.333C224.000 41.551 214.449 32.000 202.667 32.000H53.333C41.551 32.000 32.000 41.551 32.000 53.333V202.667C32.000 214.449 41.551 224.000 53.333 224.000Z" stroke="#7a5a96" stroke-width="14" stroke-linejoin="round" id="primary"/>
    <path d="M181.333 96.000H224.000M181.333 160.000H224.000M106.667 128.000C83.103 128.000 64.000 147.103 64.000 170.667H149.333C149.333 147.103 130.230 128.000 106.667 128.000ZM106.667 128.000C118.449 128.000 128.000 118.449 128.000 106.667C128.000 94.885 118.449 85.333 106.667 85.333C94.885 85.333 85.333 94.885 85.333 106.667C85.333 118.449 94.885 128.000 106.667 128.000Z" stroke="#8c4a65" stroke-width="14" stroke-linejoin="round" id="secondary"/>
  </g>
</svg>
