<svg xmlns="http://www.w3.org/2000/svg" width="48" height="48" viewBox="0 0 256 256" fill="none" id="my-svg">
  <defs>
    <linearGradient id="gradient1">
      <stop class="stop1" offset="0%" stop-color="#8f66ff"></stop>
      <stop class="stop2" offset="100%" stop-color="#3d12ff"></stop>
    </linearGradient>
  </defs>
  <rect id="backgr" width="256" height="256" fill="none" rx="60"></rect>
  <g id="group" transform="translate(0,0) scale(1)">
    <path d="M192.189 164.387L122.288 213.332C102.985 226.848 76.380 222.157 62.864 202.854C53.184 189.029 52.843 171.458 60.522 157.633" stroke="#8f66ff" stroke-width="14" stroke-linejoin="round" id="secondary"></path>
    <path d="M170.112 128.459 152.64 140.693l-34.955 24.48A42.667 42.667 0 0 1 68.747 95.253l69.899 -48.939a42.667 42.667 0 0 1 61.76 55.701" stroke="#fcfcfc" stroke-width="14" stroke-linecap="round" id="primary"></path>
    <path d="M192.192 164.384a42.667 42.667 0 0 0 -48.949 -69.899l-34.955 24.469 -8.736 6.123 -8.736 6.123" stroke="#8f66ff" stroke-width="14" stroke-linecap="round" stroke-linejoin="round" id="secondary"></path>
  </g>
</svg>